<svg xmlns="http://www.w3.org/2000/svg" viewBox="0 0 400 400" width="400" height="400">
  <defs>
    <style>
      @keyframes blink {
        0%, 49% { opacity: 1; }
        50%, 100% { opacity: 0; }
      }
      @keyframes flicker {
        0%, 95%, 100% { opacity: 1; }
        96% { opacity: 0.8; }
        97% { opacity: 1; }
        98% { opacity: 0.6; }
        99% { opacity: 1; }
      }
      @keyframes pulse-ring {
        0% { stroke-opacity: 0.15; }
        50% { stroke-opacity: 0.45; }
        100% { stroke-opacity: 0.15; }
      }
      .cursor { animation: blink 1s step-end infinite; }
      .flicker { animation: flicker 4s ease-in-out infinite; }
      .pulse { animation: pulse-ring 3s ease-in-out infinite; }
    </style>

    <filter id="glow" x="-40%" y="-40%" width="180%" height="180%">
      <feGaussianBlur in="SourceGraphic" stdDeviation="3.5" result="blur"/>
      <feMerge><feMergeNode in="blur"/><feMergeNode in="SourceGraphic"/></feMerge>
    </filter>
    <filter id="strong-glow" x="-60%" y="-60%" width="220%" height="220%">
      <feGaussianBlur in="SourceGraphic" stdDeviation="7" result="blur1"/>
      <feGaussianBlur in="SourceGraphic" stdDeviation="14" result="blur2"/>
      <feMerge>
        <feMergeNode in="blur2"/>
        <feMergeNode in="blur1"/>
        <feMergeNode in="SourceGraphic"/>
      </feMerge>
    </filter>
    <filter id="subtle-glow" x="-20%" y="-20%" width="140%" height="140%">
      <feGaussianBlur in="SourceGraphic" stdDeviation="2" result="blur"/>
      <feMerge><feMergeNode in="blur"/><feMergeNode in="SourceGraphic"/></feMerge>
    </filter>

    <radialGradient id="bg-grad" cx="50%" cy="45%" r="55%">
      <stop offset="0%" stop-color="#0a1a0a"/>
      <stop offset="100%" stop-color="#020602"/>
    </radialGradient>

    <pattern id="grid" x="0" y="0" width="20" height="20" patternUnits="userSpaceOnUse">
      <path d="M 20 0 L 0 0 0 20" fill="none" stroke="#00ff41" stroke-width="0.3" stroke-opacity="0.08"/>
    </pattern>

    <clipPath id="hex-clip">
      <polygon points="200,22 358,112 358,288 200,378 42,288 42,112"/>
    </clipPath>
  </defs>

  <!-- Outer shadow hex -->
  <polygon points="200,22 358,112 358,288 200,378 42,288 42,112"
           fill="none" stroke="#00ff41" stroke-width="12" stroke-opacity="0.08"/>

  <!-- Background fill -->
  <polygon points="200,22 358,112 358,288 200,378 42,288 42,112"
           fill="url(#bg-grad)"/>

  <!-- Grid overlay clipped to hex -->
  <rect x="0" y="0" width="400" height="400" fill="url(#grid)" clip-path="url(#hex-clip)"/>

  <!-- Scanlines clipped to hex -->
  <g clip-path="url(#hex-clip)" opacity="0.04">
    <rect x="0" y="0" width="400" height="1" fill="#00ff41"/>
    <rect x="0" y="4" width="400" height="1" fill="#00ff41"/>
    <rect x="0" y="8" width="400" height="1" fill="#00ff41"/>
    <rect x="0" y="12" width="400" height="1" fill="#00ff41"/>
    <rect x="0" y="16" width="400" height="1" fill="#00ff41"/>
    <rect x="0" y="20" width="400" height="1" fill="#00ff41"/>
    <rect x="0" y="24" width="400" height="1" fill="#00ff41"/>
    <rect x="0" y="28" width="400" height="1" fill="#00ff41"/>
    <rect x="0" y="32" width="400" height="1" fill="#00ff41"/>
    <rect x="0" y="36" width="400" height="1" fill="#00ff41"/>
    <rect x="0" y="40" width="400" height="1" fill="#00ff41"/>
    <rect x="0" y="44" width="400" height="1" fill="#00ff41"/>
    <rect x="0" y="48" width="400" height="1" fill="#00ff41"/>
    <rect x="0" y="52" width="400" height="1" fill="#00ff41"/>
    <rect x="0" y="56" width="400" height="1" fill="#00ff41"/>
    <rect x="0" y="60" width="400" height="1" fill="#00ff41"/>
    <rect x="0" y="64" width="400" height="1" fill="#00ff41"/>
    <rect x="0" y="68" width="400" height="1" fill="#00ff41"/>
    <rect x="0" y="72" width="400" height="1" fill="#00ff41"/>
    <rect x="0" y="76" width="400" height="1" fill="#00ff41"/>
    <rect x="0" y="80" width="400" height="1" fill="#00ff41"/>
    <rect x="0" y="84" width="400" height="1" fill="#00ff41"/>
    <rect x="0" y="88" width="400" height="1" fill="#00ff41"/>
    <rect x="0" y="92" width="400" height="1" fill="#00ff41"/>
    <rect x="0" y="96" width="400" height="1" fill="#00ff41"/>
    <rect x="0" y="100" width="400" height="1" fill="#00ff41"/>
    <rect x="0" y="104" width="400" height="1" fill="#00ff41"/>
    <rect x="0" y="108" width="400" height="1" fill="#00ff41"/>
    <rect x="0" y="112" width="400" height="1" fill="#00ff41"/>
    <rect x="0" y="116" width="400" height="1" fill="#00ff41"/>
    <rect x="0" y="120" width="400" height="1" fill="#00ff41"/>
    <rect x="0" y="124" width="400" height="1" fill="#00ff41"/>
    <rect x="0" y="128" width="400" height="1" fill="#00ff41"/>
    <rect x="0" y="132" width="400" height="1" fill="#00ff41"/>
    <rect x="0" y="136" width="400" height="1" fill="#00ff41"/>
    <rect x="0" y="140" width="400" height="1" fill="#00ff41"/>
    <rect x="0" y="144" width="400" height="1" fill="#00ff41"/>
    <rect x="0" y="148" width="400" height="1" fill="#00ff41"/>
    <rect x="0" y="152" width="400" height="1" fill="#00ff41"/>
    <rect x="0" y="156" width="400" height="1" fill="#00ff41"/>
    <rect x="0" y="160" width="400" height="1" fill="#00ff41"/>
    <rect x="0" y="164" width="400" height="1" fill="#00ff41"/>
    <rect x="0" y="168" width="400" height="1" fill="#00ff41"/>
    <rect x="0" y="172" width="400" height="1" fill="#00ff41"/>
    <rect x="0" y="176" width="400" height="1" fill="#00ff41"/>
    <rect x="0" y="180" width="400" height="1" fill="#00ff41"/>
    <rect x="0" y="184" width="400" height="1" fill="#00ff41"/>
    <rect x="0" y="188" width="400" height="1" fill="#00ff41"/>
    <rect x="0" y="192" width="400" height="1" fill="#00ff41"/>
    <rect x="0" y="196" width="400" height="1" fill="#00ff41"/>
    <rect x="0" y="200" width="400" height="1" fill="#00ff41"/>
    <rect x="0" y="204" width="400" height="1" fill="#00ff41"/>
    <rect x="0" y="208" width="400" height="1" fill="#00ff41"/>
    <rect x="0" y="212" width="400" height="1" fill="#00ff41"/>
    <rect x="0" y="216" width="400" height="1" fill="#00ff41"/>
    <rect x="0" y="220" width="400" height="1" fill="#00ff41"/>
    <rect x="0" y="224" width="400" height="1" fill="#00ff41"/>
    <rect x="0" y="228" width="400" height="1" fill="#00ff41"/>
    <rect x="0" y="232" width="400" height="1" fill="#00ff41"/>
    <rect x="0" y="236" width="400" height="1" fill="#00ff41"/>
    <rect x="0" y="240" width="400" height="1" fill="#00ff41"/>
    <rect x="0" y="244" width="400" height="1" fill="#00ff41"/>
    <rect x="0" y="248" width="400" height="1" fill="#00ff41"/>
    <rect x="0" y="252" width="400" height="1" fill="#00ff41"/>
    <rect x="0" y="256" width="400" height="1" fill="#00ff41"/>
    <rect x="0" y="260" width="400" height="1" fill="#00ff41"/>
    <rect x="0" y="264" width="400" height="1" fill="#00ff41"/>
    <rect x="0" y="268" width="400" height="1" fill="#00ff41"/>
    <rect x="0" y="272" width="400" height="1" fill="#00ff41"/>
    <rect x="0" y="276" width="400" height="1" fill="#00ff41"/>
    <rect x="0" y="280" width="400" height="1" fill="#00ff41"/>
    <rect x="0" y="284" width="400" height="1" fill="#00ff41"/>
    <rect x="0" y="288" width="400" height="1" fill="#00ff41"/>
    <rect x="0" y="292" width="400" height="1" fill="#00ff41"/>
    <rect x="0" y="296" width="400" height="1" fill="#00ff41"/>
    <rect x="0" y="300" width="400" height="1" fill="#00ff41"/>
    <rect x="0" y="304" width="400" height="1" fill="#00ff41"/>
    <rect x="0" y="308" width="400" height="1" fill="#00ff41"/>
    <rect x="0" y="312" width="400" height="1" fill="#00ff41"/>
    <rect x="0" y="316" width="400" height="1" fill="#00ff41"/>
    <rect x="0" y="320" width="400" height="1" fill="#00ff41"/>
    <rect x="0" y="324" width="400" height="1" fill="#00ff41"/>
    <rect x="0" y="328" width="400" height="1" fill="#00ff41"/>
    <rect x="0" y="332" width="400" height="1" fill="#00ff41"/>
    <rect x="0" y="336" width="400" height="1" fill="#00ff41"/>
    <rect x="0" y="340" width="400" height="1" fill="#00ff41"/>
    <rect x="0" y="344" width="400" height="1" fill="#00ff41"/>
    <rect x="0" y="348" width="400" height="1" fill="#00ff41"/>
    <rect x="0" y="352" width="400" height="1" fill="#00ff41"/>
    <rect x="0" y="356" width="400" height="1" fill="#00ff41"/>
    <rect x="0" y="360" width="400" height="1" fill="#00ff41"/>
    <rect x="0" y="364" width="400" height="1" fill="#00ff41"/>
    <rect x="0" y="368" width="400" height="1" fill="#00ff41"/>
    <rect x="0" y="372" width="400" height="1" fill="#00ff41"/>
    <rect x="0" y="376" width="400" height="1" fill="#00ff41"/>
    <rect x="0" y="380" width="400" height="1" fill="#00ff41"/>
    <rect x="0" y="384" width="400" height="1" fill="#00ff41"/>
    <rect x="0" y="388" width="400" height="1" fill="#00ff41"/>
    <rect x="0" y="392" width="400" height="1" fill="#00ff41"/>
    <rect x="0" y="396" width="400" height="1" fill="#00ff41"/>
  </g>

  <!-- Hex border glow (outer) -->
  <polygon points="200,22 358,112 358,288 200,378 42,288 42,112"
           fill="none" stroke="#00ff41" stroke-width="3"
           filter="url(#glow)" opacity="0.7"/>

  <!-- Hex border sharp -->
  <polygon points="200,22 358,112 358,288 200,378 42,288 42,112"
           fill="none" stroke="#00ff41" stroke-width="1.5" opacity="0.9"/>

  <!-- Inner dashed hex ring -->
  <polygon points="200,50 332,125 332,275 200,350 68,275 68,125"
           fill="none" stroke="#00ff41" stroke-width="1"
           stroke-dasharray="6 5" class="pulse"/>

  <!-- Circuit traces — top-right -->
  <g filter="url(#subtle-glow)" stroke="#00ff41" stroke-width="1.5" fill="none" opacity="0.55">
    <path d="M 315 140 L 350 140 L 350 105"/>
    <circle cx="350" cy="101" r="3.5" fill="#00ff41"/>
    <path d="M 340 125 L 370 125" stroke-width="1" opacity="0.4"/>
  </g>

  <!-- Circuit traces — top-left -->
  <g filter="url(#subtle-glow)" stroke="#00ff41" stroke-width="1.5" fill="none" opacity="0.55">
    <path d="M 85 140 L 50 140 L 50 105"/>
    <circle cx="50" cy="101" r="3.5" fill="#00ff41"/>
    <path d="M 60 125 L 30 125" stroke-width="1" opacity="0.4"/>
  </g>

  <!-- Circuit traces — bottom -->
  <g filter="url(#subtle-glow)" stroke="#00ff41" stroke-width="1.5" fill="none" opacity="0.55">
    <path d="M 200 358 L 200 385 L 240 385"/>
    <circle cx="244" cy="385" r="3.5" fill="#00ff41"/>
  </g>

  <!-- Binary decoration — top-left area -->
  <g font-family="'Courier New', Courier, monospace" font-size="8" fill="#00ff41" fill-opacity="0.2" class="flicker">
    <text x="72" y="170">01101000</text>
    <text x="72" y="182">01100001</text>
    <text x="72" y="194">01100011</text>
    <text x="72" y="206">01101011</text>
  </g>

  <!-- Binary decoration — right area -->
  <g font-family="'Courier New', Courier, monospace" font-size="8" fill="#00ff41" fill-opacity="0.2" class="flicker">
    <text x="256" y="218">01110000</text>
    <text x="256" y="230">01100001</text>
    <text x="256" y="242">01110100</text>
    <text x="256" y="254">01101000</text>
  </g>

  <!-- Terminal prompt line -->
  <text x="200" y="152"
        text-anchor="middle"
        font-family="'Courier New', Courier, monospace"
        font-size="11"
        fill="#00ff41"
        fill-opacity="0.5"
        letter-spacing="1"
        filter="url(#subtle-glow)">root@hacklab:~#</text>

  <!-- Main symbol: > -->
  <text x="147" y="242"
        font-family="'Courier New', Courier, monospace"
        font-size="100"
        font-weight="bold"
        fill="#00ff41"
        filter="url(#strong-glow)"
        class="flicker">&gt;</text>

  <!-- Cursor block — blinks -->
  <rect x="211" y="163" width="52" height="72" fill="#00ff41"
        filter="url(#glow)" class="cursor"/>

  <!-- Divider line -->
  <line x1="110" y1="276" x2="290" y2="276"
        stroke="#00ff41" stroke-width="1" stroke-opacity="0.3"
        filter="url(#subtle-glow)"/>
  <line x1="110" y1="276" x2="290" y2="276"
        stroke="#00ff41" stroke-width="0.5" stroke-opacity="0.6"/>

  <!-- Label -->
  <text x="200" y="310"
        text-anchor="middle"
        font-family="'Courier New', Courier, monospace"
        font-size="20"
        font-weight="bold"
        fill="#00ff41"
        letter-spacing="7"
        filter="url(#glow)">HACKER PATH</text>

  <!-- Subtitle -->
  <text x="200" y="335"
        text-anchor="middle"
        font-family="'Courier New', Courier, monospace"
        font-size="9"
        fill="#00ff41"
        fill-opacity="0.45"
        letter-spacing="3">LỘ TRÌNH BẢO MẬT THỰC CHIẾN</text>
</svg>
